<mxfile host="app.diagrams.net" agent="Mozilla/5.0 (Macintosh; Intel Mac OS X 10_15_7) AppleWebKit/537.36 (KHTML, like Gecko) Chrome/134.0.0.0 Safari/537.36" version="26.2.1" pages="3">
  <diagram name="definition-1" id="tFemIYBDGh93y24Xny5a">
    <mxGraphModel grid="1" page="1" gridSize="10" guides="1" tooltips="1" connect="1" arrows="1" fold="1" pageScale="1" pageWidth="827" pageHeight="1169" math="0" shadow="0">
      <root>
        <mxCell id="0" />
        <mxCell id="1" parent="0" />
        <mxCell id="7nfo9P92tAGmzpmhVJ9n-1" value="&lt;font style=&quot;font-size: 24px;&quot; face=&quot;Helvetica&quot;&gt;Feedstock A&lt;/font&gt;" style="rounded=0;whiteSpace=wrap;html=1;" vertex="1" parent="1">
          <mxGeometry x="170" y="90" width="180" height="60" as="geometry" />
        </mxCell>
        <mxCell id="7nfo9P92tAGmzpmhVJ9n-2" value="&lt;font style=&quot;font-size: 24px;&quot; face=&quot;Helvetica&quot;&gt;Feedstock B&lt;/font&gt;" style="rounded=0;whiteSpace=wrap;html=1;" vertex="1" parent="1">
          <mxGeometry x="350" y="90" width="180" height="60" as="geometry" />
        </mxCell>
        <mxCell id="7nfo9P92tAGmzpmhVJ9n-3" value="&lt;font style=&quot;font-size: 18px;&quot; face=&quot;Helvetica&quot;&gt;Test Case 1&lt;/font&gt;" style="rounded=0;whiteSpace=wrap;html=1;" vertex="1" parent="1">
          <mxGeometry x="170" y="150" width="180" height="30" as="geometry" />
        </mxCell>
        <mxCell id="7nfo9P92tAGmzpmhVJ9n-4" value="&lt;font style=&quot;font-size: 18px;&quot; face=&quot;Helvetica&quot;&gt;Test Case 2&lt;/font&gt;" style="rounded=0;whiteSpace=wrap;html=1;" vertex="1" parent="1">
          <mxGeometry x="170" y="180" width="180" height="30" as="geometry" />
        </mxCell>
        <mxCell id="7nfo9P92tAGmzpmhVJ9n-5" value="&lt;font style=&quot;font-size: 18px;&quot; face=&quot;Helvetica&quot;&gt;Test Case 3&lt;/font&gt;" style="rounded=0;whiteSpace=wrap;html=1;" vertex="1" parent="1">
          <mxGeometry x="170" y="210" width="180" height="30" as="geometry" />
        </mxCell>
        <mxCell id="7nfo9P92tAGmzpmhVJ9n-6" value="&lt;font style=&quot;font-size: 18px;&quot; face=&quot;Helvetica&quot;&gt;Test Case 1&lt;/font&gt;" style="rounded=0;whiteSpace=wrap;html=1;" vertex="1" parent="1">
          <mxGeometry x="350" y="150" width="180" height="30" as="geometry" />
        </mxCell>
        <mxCell id="7nfo9P92tAGmzpmhVJ9n-7" value="&lt;font style=&quot;font-size: 18px;&quot; face=&quot;Helvetica&quot;&gt;Test Case 2&lt;/font&gt;" style="rounded=0;whiteSpace=wrap;html=1;" vertex="1" parent="1">
          <mxGeometry x="350" y="180" width="180" height="30" as="geometry" />
        </mxCell>
        <mxCell id="7nfo9P92tAGmzpmhVJ9n-9" value="&lt;font style=&quot;font-size: 18px;&quot; face=&quot;Helvetica&quot;&gt;Test Case 4&lt;/font&gt;" style="rounded=0;whiteSpace=wrap;html=1;" vertex="1" parent="1">
          <mxGeometry x="170" y="240" width="180" height="30" as="geometry" />
        </mxCell>
        <mxCell id="7nfo9P92tAGmzpmhVJ9n-10" value="&lt;font style=&quot;font-size: 18px;&quot; face=&quot;Helvetica&quot;&gt;Test Case 5&lt;/font&gt;" style="rounded=0;whiteSpace=wrap;html=1;" vertex="1" parent="1">
          <mxGeometry x="170" y="270" width="180" height="30" as="geometry" />
        </mxCell>
      </root>
    </mxGraphModel>
  </diagram>
  <diagram id="DVF9HlynIdfxFiPp1heX" name="extension-2">
    <mxGraphModel grid="1" page="1" gridSize="10" guides="1" tooltips="1" connect="1" arrows="1" fold="1" pageScale="1" pageWidth="827" pageHeight="1169" math="0" shadow="0">
      <root>
        <mxCell id="0" />
        <mxCell id="1" parent="0" />
        <mxCell id="kWqnYl4Ltg1INNyz4BhD-1" value="&lt;font style=&quot;font-size: 24px;&quot; face=&quot;Helvetica&quot;&gt;Feedstock A&lt;/font&gt;" style="rounded=0;whiteSpace=wrap;html=1;" vertex="1" parent="1">
          <mxGeometry x="170" y="90" width="180" height="60" as="geometry" />
        </mxCell>
        <mxCell id="kWqnYl4Ltg1INNyz4BhD-2" value="&lt;font style=&quot;font-size: 24px;&quot; face=&quot;Helvetica&quot;&gt;Feedstock B&lt;/font&gt;" style="rounded=0;whiteSpace=wrap;html=1;" vertex="1" parent="1">
          <mxGeometry x="350" y="90" width="180" height="60" as="geometry" />
        </mxCell>
        <mxCell id="kWqnYl4Ltg1INNyz4BhD-3" value="&lt;font style=&quot;font-size: 18px;&quot; face=&quot;Helvetica&quot;&gt;Test Case 1&lt;/font&gt;" style="rounded=0;whiteSpace=wrap;html=1;" vertex="1" parent="1">
          <mxGeometry x="170" y="150" width="180" height="30" as="geometry" />
        </mxCell>
        <mxCell id="kWqnYl4Ltg1INNyz4BhD-4" value="&lt;font style=&quot;font-size: 18px;&quot; face=&quot;Helvetica&quot;&gt;Test Case 2&lt;/font&gt;" style="rounded=0;whiteSpace=wrap;html=1;" vertex="1" parent="1">
          <mxGeometry x="170" y="180" width="180" height="30" as="geometry" />
        </mxCell>
        <mxCell id="kWqnYl4Ltg1INNyz4BhD-5" value="&lt;font style=&quot;font-size: 18px;&quot; face=&quot;Helvetica&quot;&gt;Test Case 3&lt;/font&gt;" style="rounded=0;whiteSpace=wrap;html=1;" vertex="1" parent="1">
          <mxGeometry x="170" y="210" width="180" height="30" as="geometry" />
        </mxCell>
        <mxCell id="kWqnYl4Ltg1INNyz4BhD-6" value="&lt;span style=&quot;font-size: 18px;&quot;&gt;Test Case 1&lt;/span&gt;" style="rounded=0;whiteSpace=wrap;html=1;" vertex="1" parent="1">
          <mxGeometry x="350" y="150" width="180" height="30" as="geometry" />
        </mxCell>
        <mxCell id="kWqnYl4Ltg1INNyz4BhD-7" value="&lt;span style=&quot;font-size: 18px;&quot;&gt;Test Case 2&lt;/span&gt;" style="rounded=0;whiteSpace=wrap;html=1;" vertex="1" parent="1">
          <mxGeometry x="350" y="180" width="180" height="30" as="geometry" />
        </mxCell>
        <mxCell id="kWqnYl4Ltg1INNyz4BhD-8" value="&lt;span style=&quot;font-size: 18px;&quot;&gt;Test Case 4&lt;/span&gt;" style="rounded=0;whiteSpace=wrap;html=1;" vertex="1" parent="1">
          <mxGeometry x="170" y="240" width="180" height="30" as="geometry" />
        </mxCell>
        <mxCell id="kWqnYl4Ltg1INNyz4BhD-9" value="&lt;font style=&quot;font-size: 18px;&quot; face=&quot;Helvetica&quot;&gt;Test Case 5&lt;/font&gt;" style="rounded=0;whiteSpace=wrap;html=1;" vertex="1" parent="1">
          <mxGeometry x="170" y="270" width="180" height="30" as="geometry" />
        </mxCell>
        <mxCell id="kWqnYl4Ltg1INNyz4BhD-10" value="&lt;span style=&quot;font-size: 18px;&quot;&gt;Test Case 1&lt;/span&gt;" style="rounded=0;whiteSpace=wrap;html=1;fillColor=#1CFF2B;" vertex="1" parent="1">
          <mxGeometry x="350" y="210" width="180" height="30" as="geometry" />
        </mxCell>
        <mxCell id="kWqnYl4Ltg1INNyz4BhD-11" value="&lt;span style=&quot;font-size: 18px;&quot;&gt;Test Case 2&lt;/span&gt;" style="rounded=0;whiteSpace=wrap;html=1;fillColor=#1CFF2B;" vertex="1" parent="1">
          <mxGeometry x="350" y="240" width="180" height="30" as="geometry" />
        </mxCell>
        <mxCell id="kWqnYl4Ltg1INNyz4BhD-12" value="&lt;span style=&quot;font-size: 18px;&quot;&gt;Test Case 1&lt;/span&gt;" style="rounded=0;whiteSpace=wrap;html=1;fillColor=#12C91B;" vertex="1" parent="1">
          <mxGeometry x="350" y="270" width="180" height="30" as="geometry" />
        </mxCell>
        <mxCell id="kWqnYl4Ltg1INNyz4BhD-13" value="&lt;span style=&quot;font-size: 18px;&quot;&gt;Test Case 2&lt;/span&gt;" style="rounded=0;whiteSpace=wrap;html=1;fillColor=#ADADAD;" vertex="1" parent="1">
          <mxGeometry x="350" y="300" width="180" height="30" as="geometry" />
        </mxCell>
        <mxCell id="kWqnYl4Ltg1INNyz4BhD-14" value="" style="endArrow=none;html=1;rounded=0;strokeColor=#FF1E05;strokeWidth=3;" edge="1" parent="1">
          <mxGeometry width="50" height="50" relative="1" as="geometry">
            <mxPoint x="150" y="301" as="sourcePoint" />
            <mxPoint x="550" y="300" as="targetPoint" />
          </mxGeometry>
        </mxCell>
      </root>
    </mxGraphModel>
  </diagram>
  <diagram name="shuffle-3" id="mEoKGtQcbACGTiQUel3p">
    <mxGraphModel grid="1" page="1" gridSize="10" guides="1" tooltips="1" connect="1" arrows="1" fold="1" pageScale="1" pageWidth="827" pageHeight="1169" math="0" shadow="0">
      <root>
        <mxCell id="TdIP4301U5KMVTpMavxU-0" />
        <mxCell id="TdIP4301U5KMVTpMavxU-1" parent="TdIP4301U5KMVTpMavxU-0" />
        <mxCell id="TdIP4301U5KMVTpMavxU-2" value="&lt;font style=&quot;font-size: 24px;&quot; face=&quot;Helvetica&quot;&gt;Feedstock A&lt;/font&gt;" style="rounded=0;whiteSpace=wrap;html=1;" vertex="1" parent="TdIP4301U5KMVTpMavxU-1">
          <mxGeometry x="220" y="90" width="180" height="60" as="geometry" />
        </mxCell>
        <mxCell id="TdIP4301U5KMVTpMavxU-3" value="&lt;font style=&quot;font-size: 24px;&quot; face=&quot;Helvetica&quot;&gt;Feedstock B&lt;/font&gt;" style="rounded=0;whiteSpace=wrap;html=1;" vertex="1" parent="TdIP4301U5KMVTpMavxU-1">
          <mxGeometry x="400" y="90" width="180" height="60" as="geometry" />
        </mxCell>
        <mxCell id="TdIP4301U5KMVTpMavxU-4" value="&lt;font style=&quot;font-size: 18px;&quot; face=&quot;Helvetica&quot;&gt;Test Case 3&lt;/font&gt;" style="rounded=0;whiteSpace=wrap;html=1;fillColor=default;" vertex="1" parent="TdIP4301U5KMVTpMavxU-1">
          <mxGeometry x="220" y="150" width="180" height="30" as="geometry" />
        </mxCell>
        <mxCell id="TdIP4301U5KMVTpMavxU-5" value="&lt;font style=&quot;font-size: 18px;&quot; face=&quot;Helvetica&quot;&gt;Test Case 1&lt;/font&gt;" style="rounded=0;whiteSpace=wrap;html=1;" vertex="1" parent="TdIP4301U5KMVTpMavxU-1">
          <mxGeometry x="220" y="180" width="180" height="30" as="geometry" />
        </mxCell>
        <mxCell id="TdIP4301U5KMVTpMavxU-6" value="&lt;font style=&quot;font-size: 18px;&quot; face=&quot;Helvetica&quot;&gt;Test Case 4&lt;/font&gt;" style="rounded=0;whiteSpace=wrap;html=1;fillColor=default;" vertex="1" parent="TdIP4301U5KMVTpMavxU-1">
          <mxGeometry x="220" y="210" width="180" height="30" as="geometry" />
        </mxCell>
        <mxCell id="TdIP4301U5KMVTpMavxU-7" value="&lt;span style=&quot;font-size: 18px;&quot;&gt;Test Case 2&lt;/span&gt;" style="rounded=0;whiteSpace=wrap;html=1;fillColor=default;" vertex="1" parent="TdIP4301U5KMVTpMavxU-1">
          <mxGeometry x="400" y="150" width="180" height="30" as="geometry" />
        </mxCell>
        <mxCell id="TdIP4301U5KMVTpMavxU-8" value="&lt;span style=&quot;font-size: 18px;&quot;&gt;Test Case 1&lt;/span&gt;" style="rounded=0;whiteSpace=wrap;html=1;" vertex="1" parent="TdIP4301U5KMVTpMavxU-1">
          <mxGeometry x="400" y="180" width="180" height="30" as="geometry" />
        </mxCell>
        <mxCell id="TdIP4301U5KMVTpMavxU-9" value="&lt;font style=&quot;font-size: 18px;&quot; face=&quot;Helvetica&quot;&gt;Test Case 2&lt;/font&gt;" style="rounded=0;whiteSpace=wrap;html=1;" vertex="1" parent="TdIP4301U5KMVTpMavxU-1">
          <mxGeometry x="220" y="240" width="180" height="30" as="geometry" />
        </mxCell>
        <mxCell id="TdIP4301U5KMVTpMavxU-10" value="&lt;font style=&quot;font-size: 18px;&quot; face=&quot;Helvetica&quot;&gt;Test Case 5&lt;/font&gt;" style="rounded=0;whiteSpace=wrap;html=1;fillColor=default;" vertex="1" parent="TdIP4301U5KMVTpMavxU-1">
          <mxGeometry x="220" y="270" width="180" height="30" as="geometry" />
        </mxCell>
        <mxCell id="TdIP4301U5KMVTpMavxU-11" value="&lt;span style=&quot;font-size: 18px;&quot;&gt;Test Case 1&lt;/span&gt;" style="rounded=0;whiteSpace=wrap;html=1;fillColor=default;" vertex="1" parent="TdIP4301U5KMVTpMavxU-1">
          <mxGeometry x="400" y="210" width="180" height="30" as="geometry" />
        </mxCell>
        <mxCell id="TdIP4301U5KMVTpMavxU-12" value="&lt;span style=&quot;font-size: 18px;&quot;&gt;Test Case 2&lt;/span&gt;" style="rounded=0;whiteSpace=wrap;html=1;fillColor=default;" vertex="1" parent="TdIP4301U5KMVTpMavxU-1">
          <mxGeometry x="400" y="240" width="180" height="30" as="geometry" />
        </mxCell>
        <mxCell id="TdIP4301U5KMVTpMavxU-13" value="&lt;span style=&quot;font-size: 18px;&quot;&gt;Test Case 1&lt;/span&gt;" style="rounded=0;whiteSpace=wrap;html=1;fillColor=default;" vertex="1" parent="TdIP4301U5KMVTpMavxU-1">
          <mxGeometry x="400" y="270" width="180" height="30" as="geometry" />
        </mxCell>
        <mxCell id="im66Gs4cK9GuiV3HZRhM-3" value="&lt;font style=&quot;font-size: 18px;&quot; face=&quot;Helvetica&quot;&gt;Scenario 1&lt;/font&gt;" style="rounded=0;whiteSpace=wrap;html=1;fillColor=default;" vertex="1" parent="TdIP4301U5KMVTpMavxU-1">
          <mxGeometry x="40" y="150" width="180" height="30" as="geometry" />
        </mxCell>
        <mxCell id="im66Gs4cK9GuiV3HZRhM-4" value="&lt;font style=&quot;font-size: 18px;&quot; face=&quot;Helvetica&quot;&gt;Scenario 2&lt;/font&gt;" style="rounded=0;whiteSpace=wrap;html=1;" vertex="1" parent="TdIP4301U5KMVTpMavxU-1">
          <mxGeometry x="40" y="180" width="180" height="30" as="geometry" />
        </mxCell>
        <mxCell id="im66Gs4cK9GuiV3HZRhM-5" value="&lt;font style=&quot;font-size: 18px;&quot; face=&quot;Helvetica&quot;&gt;Scenario 3&lt;/font&gt;" style="rounded=0;whiteSpace=wrap;html=1;fillColor=default;" vertex="1" parent="TdIP4301U5KMVTpMavxU-1">
          <mxGeometry x="40" y="210" width="180" height="30" as="geometry" />
        </mxCell>
        <mxCell id="im66Gs4cK9GuiV3HZRhM-6" value="&lt;font style=&quot;font-size: 18px;&quot; face=&quot;Helvetica&quot;&gt;Scenario 4&lt;/font&gt;" style="rounded=0;whiteSpace=wrap;html=1;" vertex="1" parent="TdIP4301U5KMVTpMavxU-1">
          <mxGeometry x="40" y="240" width="180" height="30" as="geometry" />
        </mxCell>
        <mxCell id="im66Gs4cK9GuiV3HZRhM-7" value="&lt;font style=&quot;font-size: 18px;&quot; face=&quot;Helvetica&quot;&gt;Scenario 5&lt;/font&gt;" style="rounded=0;whiteSpace=wrap;html=1;fillColor=default;" vertex="1" parent="TdIP4301U5KMVTpMavxU-1">
          <mxGeometry x="40" y="270" width="180" height="30" as="geometry" />
        </mxCell>
      </root>
    </mxGraphModel>
  </diagram>
</mxfile>
